<?xml version="1.0" standalone="no"?>
<!DOCTYPE svg PUBLIC "-//W3C//DTD SVG 20010904//EN"
 "http://www.w3.org/TR/2001/REC-SVG-20010904/DTD/svg10.dtd">
<svg version="1.0" xmlns="http://www.w3.org/2000/svg"
 width="310.000000pt" height="310.000000pt" viewBox="0 0 310.000000 310.000000"
 preserveAspectRatio="xMidYMid meet">
<metadata>
Created by potrace 1.11, written by Peter Selinger 2001-2013
</metadata>
<g transform="translate(0.000000,310.000000) scale(0.100000,-0.100000)"
fill="#000000" stroke="none">
<path d="M1290 3000 c-158 -31 -267 -67 -404 -136 -282 -142 -515 -377 -655
-662 -55 -112 -61 -127 -95 -242 -40 -136 -56 -252 -56 -410 0 -245 45 -441
150 -652 215 -434 615 -728 1093 -804 129 -20 414 -15 527 11 579 129 1016
566 1145 1145 26 113 31 398 11 527 -92 579 -517 1050 -1081 1198 -185 49
-456 59 -635 25z m410 -259 c0 -6 -5 -13 -11 -17 -16 -9 -89 -125 -89 -140 0
-19 40 -22 79 -6 37 15 73 11 155 -15 38 -13 58 -14 87 -6 35 9 37 9 29 -8
-17 -31 -12 -36 68 -68 156 -64 326 -186 427 -308 135 -163 208 -338 230 -555
4 -37 13 -73 21 -79 20 -16 17 -45 -5 -66 -11 -11 -25 -49 -35 -97 -50 -245
-212 -502 -410 -651 -64 -47 -185 -108 -261 -130 -33 -9 -109 -20 -170 -25
-60 -4 -135 -15 -165 -24 -73 -21 -163 -20 -230 4 -36 13 -82 19 -136 20 -190
0 -408 101 -550 253 -146 156 -263 389 -289 579 -5 31 -15 53 -31 67 -28 25
-31 55 -6 73 13 10 21 38 31 116 46 379 310 698 691 837 132 48 121 40 105 72
-7 15 -16 39 -20 53 l-8 25 23 -20 c18 -17 34 -19 99 -17 65 2 81 0 103 -18
15 -11 41 -20 60 -20 31 0 35 5 67 65 18 36 47 76 63 90 29 24 78 34 78 16z"/>
<path d="M1280 2440 c-14 -4 -50 -16 -80 -25 -292 -90 -534 -323 -631 -606
-23 -69 -51 -240 -41 -250 4 -4 26 -10 50 -14 l42 -7 0 67 c0 57 3 69 25 90
29 30 35 31 63 5 19 -18 22 -32 22 -95 l0 -74 33 -5 c17 -3 60 -7 95 -10 l62
-6 0 125 c0 111 2 127 20 145 16 16 24 18 44 9 32 -15 36 -33 36 -167 0 -81 3
-114 13 -116 6 -3 49 -7 95 -10 l82 -5 0 94 c0 99 10 125 50 125 40 0 50 -26
50 -126 l0 -94 110 0 110 0 0 135 c0 121 2 137 20 155 16 16 24 18 44 9 32
-15 36 -32 36 -176 l0 -123 100 0 100 0 0 93 c0 101 7 117 50 117 43 0 50 -17
50 -115 l0 -91 78 8 c42 3 86 7 97 7 19 1 20 7 17 109 -3 115 5 154 37 171 15
8 24 6 43 -8 21 -18 23 -28 27 -140 l3 -121 38 0 c20 0 58 3 84 6 l46 7 0 76
c1 85 13 111 53 111 40 0 57 -34 57 -112 l0 -68 28 6 c55 12 53 10 46 76 -39
369 -298 669 -695 802 -103 35 -119 34 -72 -6 20 -18 47 -42 59 -54 13 -11 39
-29 58 -39 63 -34 40 -55 -59 -55 -61 0 -130 31 -199 89 -27 23 -51 40 -53 37
-2 -2 3 -30 13 -62 13 -47 15 -80 10 -163 -3 -58 -11 -110 -16 -115 -13 -13
-64 35 -98 93 -22 37 -27 61 -32 145 l-5 101 -32 -51 c-47 -73 -80 -88 -184
-82 -98 5 -124 14 -89 33 12 6 34 34 49 61 14 26 41 59 60 71 34 23 27 28 -19
13z"/>
<path d="M2405 1420 c-227 -25 -434 -40 -545 -40 -52 0 -132 -3 -177 -6 l-82
-7 45 -88 c24 -49 44 -95 44 -104 0 -13 -20 -15 -130 -15 -100 0 -130 3 -130
13 0 7 4 17 9 23 12 13 92 166 88 170 -1 2 -79 5 -172 9 -221 7 -467 23 -628
41 -71 8 -144 14 -162 14 l-32 0 8 -47 c5 -27 21 -84 35 -128 117 -357 400
-599 714 -611 52 -2 109 -10 125 -16 41 -18 233 -17 264 1 14 7 64 14 120 16
260 9 494 165 652 437 51 86 82 162 109 262 22 83 24 97 13 95 -5 -1 -80 -9
-168 -19z"/>
</g>
</svg>
